<svg xmlns="http://www.w3.org/2000/svg" width="31.079" height="31.079" viewBox="0 0 31.079 31.079">
  <g id="Email_Setting" data-name="Email Setting" transform="translate(-4 -4)">
    <path id="Trazado_35612" data-name="Trazado 35612" d="M51.984,32.958l-10,7.237,10,7.239Z" transform="translate(-16.905 -12.887)" fill="#7284d8"/>
    <path id="Trazado_35613" data-name="Trazado 35613" d="M27.55,24.1A5.55,5.55,0,1,0,22,18.55a5.55,5.55,0,0,0,5.55,5.55Zm0-9.99a4.445,4.445,0,0,1,4.44,4.44V19.1a1.658,1.658,0,0,1-2.934,1.066,2.213,2.213,0,1,1,.714-1.621V19.1a.555.555,0,0,0,1.11,0V18.55a3.33,3.33,0,1,0-3.33,3.33h2.22a.555.555,0,0,1,0,1.11H27.55a4.44,4.44,0,0,1,0-8.88Z" transform="translate(-8.01 -4.005)" fill="#7284d8"/>
    <ellipse id="Elipse_6276" data-name="Elipse 6276" cx="1.336" cy="0.891" rx="1.336" ry="0.891" transform="translate(18.255 13.697)" fill="#7284d8"/>
    <path id="Trazado_35614" data-name="Trazado 35614" d="M4.7,28.971l10.551,7.638,1.822-1.319V33.553a9.435,9.435,0,0,1-1.642-.679L13.97,34.341a.555.555,0,0,1-.785,0L10.045,31.2a.555.555,0,0,1,0-.785l1.468-1.468a9.435,9.435,0,0,1-.681-1.642H8.754a.555.555,0,0,1-.555-.555V26.44Z" transform="translate(-0.314 -9.986)" fill="#7284d8"/>
    <path id="Trazado_35615" data-name="Trazado 35615" d="M13,12.88v3.33h1.942a.555.555,0,0,1,.537.416,8.321,8.321,0,0,0,.888,2.149.555.555,0,0,1-.085.674l-1.371,1.372,2.356,2.356,1.372-1.372a.555.555,0,0,1,.674-.085,8.321,8.321,0,0,0,2.149.888.555.555,0,0,1,.416.539V24.5l.689-.5a1.661,1.661,0,0,1,1.952,0l.689.5V23.147a.555.555,0,0,1,.416-.537,8.321,8.321,0,0,0,2.149-.888.555.555,0,0,1,.674.085l1.372,1.372,2.356-2.356-1.372-1.372a.555.555,0,0,1-.085-.674,8.322,8.322,0,0,0,.888-2.149.555.555,0,0,1,.539-.418h1.942V12.88H32.147a.555.555,0,0,1-.537-.416,8.321,8.321,0,0,0-.888-2.149.555.555,0,0,1,.085-.674L32.18,8.268,29.822,5.911,28.449,7.284a.555.555,0,0,1-.674.085,8.321,8.321,0,0,0-2.149-.888.555.555,0,0,1-.416-.539V4H21.88V5.942a.555.555,0,0,1-.416.537,8.321,8.321,0,0,0-2.149.888.555.555,0,0,1-.674-.085L17.268,5.911,14.911,8.268,16.284,9.64a.555.555,0,0,1,.085.674,8.321,8.321,0,0,0-.888,2.149.555.555,0,0,1-.539.416ZM23.545,7.885a6.66,6.66,0,1,1-6.66,6.66A6.66,6.66,0,0,1,23.545,7.885Z" transform="translate(-4.005)" fill="#7284d8"/>
    <path id="Trazado_35616" data-name="Trazado 35616" d="M4,47.434l10-7.239L4,32.958Z" transform="translate(0 -12.887)" fill="#7284d8"/>
    <path id="Trazado_35617" data-name="Trazado 35617" d="M20.793,41.576a.555.555,0,0,0-.65,0L6.086,51.754H34.85Z" transform="translate(-0.928 -16.675)" fill="#7284d8"/>
    <path id="Trazado_35618" data-name="Trazado 35618" d="M40.894,34.341a.555.555,0,0,1-.785,0l-1.468-1.468A9.434,9.434,0,0,1,37,33.553V35.29l1.822,1.319,10.554-7.638-3.5-2.531v.311a.555.555,0,0,1-.555.555H43.247a9.435,9.435,0,0,1-.679,1.642l1.468,1.466a.555.555,0,0,1,0,.785Z" transform="translate(-14.686 -9.986)" fill="#7284d8"/>
  </g>
</svg>
