<svg xmlns="http://www.w3.org/2000/svg" xmlns:xlink="http://www.w3.org/1999/xlink" width="54.314" height="56" viewBox="0 0 54.314 56">
  <defs>
    <linearGradient id="linear-gradient" x1="0.5" x2="0.5" y2="1" gradientUnits="objectBoundingBox">
      <stop offset="0" stop-color="#ec1650"/>
      <stop offset="1" stop-color="#821071"/>
    </linearGradient>
  </defs>
  <g id="g501" transform="translate(-7.522 672.151)">
    <g id="g503" transform="translate(7.522 -672.151)">
      <g id="Grupo_53" data-name="Grupo 53" transform="translate(0 0)">
        <g id="g527" transform="translate(15.376 0.049)">
          <path id="path529" d="M-115.774,0a15.605,15.605,0,0,0-12.111,15.207,15.605,15.605,0,0,0,12.111,15.207,15.257,15.257,0,0,0,14.034-15.207A15.257,15.257,0,0,0-115.774,0" transform="translate(127.885)" fill="url(#linear-gradient)"/>
        </g>
        <g id="g531" transform="translate(11.009)">
          <path id="path533" d="M-44.536-145.842a15.26,15.26,0,0,1,12.927-15.079,15.387,15.387,0,0,0-2.329-.177,15.256,15.256,0,0,0-15.256,15.256,15.256,15.256,0,0,0,15.256,15.256,15.369,15.369,0,0,0,2.329-.177,15.26,15.26,0,0,1-12.927-15.079" transform="translate(49.195 161.098)" fill="url(#linear-gradient)"/>
        </g>
        <path id="Unión_8" data-name="Unión 8" d="M51.776,25.515l-9.767-1.5a.786.786,0,0,1-.436-1.333l1.937-1.938.011-.012,0,0,.007-.007,0-.005.007-.008,0,0,.01-.012,0,0,.008-.011,0,0a.543.543,0,0,0,.085-.439h0a.542.542,0,0,0-.145-.259l-11.6-11.6a.711.711,0,0,0-.347-.192h0a.714.714,0,0,0-.4.022l0,0a.717.717,0,0,0-.277.172l-11,11-1.812.281L.411,2.207,0,.46.475.036A2.66,2.66,0,0,1,2.79.781L16.5,14.491a.721.721,0,0,0,1.021,0L29.585,2.427a2.563,2.563,0,0,1,3.624,0L47.135,16.353a.544.544,0,0,0,.769,0l1.938-1.938a.786.786,0,0,1,1.333.437l1.307,8.522.191,1.244a.787.787,0,0,1-.775.906A.8.8,0,0,1,51.776,25.515Z" transform="translate(1.632 30.476)" fill="url(#linear-gradient)"/>
        <g id="g547" transform="translate(0 30.512)">
          <path id="path549" d="M-180.411-176.528l-16.08-16.08a2.56,2.56,0,0,1-.684-2.386,2.486,2.486,0,0,0-1.294.636,2.563,2.563,0,0,0-.063,3.685l16.08,16.08a2.563,2.563,0,0,0,3.624,0l1.562-1.562a2.562,2.562,0,0,1-3.145-.374" transform="translate(199.284 194.994)" fill="url(#linear-gradient)"/>
        </g>
        <g id="g567" transform="translate(21.979 14.309)">
          <path id="path569" d="M-40.959-1.9a4.176,4.176,0,0,1-4.285-4.048A.947.947,0,0,1-44.3-6.9a.947.947,0,0,1,.947.947A2.284,2.284,0,0,0-40.959-3.8a2.284,2.284,0,0,0,2.391-2.154,2.284,2.284,0,0,0-2.391-2.154.947.947,0,0,1-.947-.947A.947.947,0,0,1-40.959-10a4.176,4.176,0,0,1,4.285,4.048A4.176,4.176,0,0,1-40.959-1.9Z" transform="translate(45.244 10)" fill="#fff"/>
        </g>
        <g id="g571" transform="translate(21.979 8.108)">
          <path id="path573" d="M-40.959-67.387a4.176,4.176,0,0,1-4.285-4.048,4.176,4.176,0,0,1,4.285-4.048,4.176,4.176,0,0,1,4.285,4.048.947.947,0,0,1-.947.947.947.947,0,0,1-.947-.947,2.284,2.284,0,0,0-2.391-2.154,2.284,2.284,0,0,0-2.391,2.154,2.284,2.284,0,0,0,2.391,2.154.947.947,0,0,1,.947.947A.947.947,0,0,1-40.959-67.387Z" transform="translate(45.244 75.482)" fill="#fff"/>
        </g>
        <g id="g575" transform="translate(25.317 7.082)">
          <path id="path577" d="M-9.053,6.349A.947.947,0,0,1-10,5.4V-9.053A.947.947,0,0,1-9.053-10a.947.947,0,0,1,.947.947V5.4A.947.947,0,0,1-9.053,6.349Z" transform="translate(10 10)" fill="#fff"/>
        </g>
      </g>
    </g>
  </g>
</svg>
