<svg xmlns="http://www.w3.org/2000/svg" width="30.061" height="30.057" viewBox="0 0 30.061 30.057">
  <path id="statistics_7147715" d="M.72,30.057H4.938a.787.787,0,0,0,.788-.788V20.715a.788.788,0,0,0-.788-.788H.72a.787.787,0,0,0-.788.788v8.554a.787.787,0,0,0,.788.788ZM26.947,0a3.041,3.041,0,0,0-2.805,4.217l.132.314-3.5,3.233-.306-.168a3.034,3.034,0,0,0-3.512.424l-.238.218-2.8-1.292.03-.34c.008-.089.013-.178.013-.267a3.042,3.042,0,1,0-5.939.928l.1.3L4.483,10.749,4.2,10.623A3.044,3.044,0,1,0,5.757,12.18l-.144-.326L9.1,8.8l.3.174a3.032,3.032,0,0,0,3.572-.4l.238-.219,2.8,1.29-.031.341c-.008.092-.014.184-.014.277a3.042,3.042,0,1,0,5.92-.986l-.1-.3L25.37,5.662l.295.138A3.042,3.042,0,1,0,26.947,0ZM29.2,8.728a.788.788,0,0,1,.788.788V29.269a.788.788,0,0,1-.788.788H24.984a.788.788,0,0,1-.788-.788V9.516a.788.788,0,0,1,.788-.788ZM13.026,30.057H8.808a.788.788,0,0,1-.788-.788V13.249a.788.788,0,0,1,.788-.788h4.218a.788.788,0,0,1,.788.788v16.02a.788.788,0,0,1-.788.788Zm8.087,0H16.9a.787.787,0,0,1-.788-.788V16.982a.788.788,0,0,1,.788-.788h4.217a.788.788,0,0,1,.788.788V29.269A.788.788,0,0,1,21.113,30.057Z" transform="translate(0.072)" fill="#7284d8" fill-rule="evenodd"/>
</svg>
